<mxfile host="app.diagrams.net" modified="2022-09-30T19:23:31.754Z" agent="5.0 (Windows NT 10.0; Win64; x64) AppleWebKit/537.36 (KHTML, like Gecko) Chrome/105.0.0.0 Safari/537.36" etag="xNI-PO6jNJuhgqz6Yl0I" version="20.4.0" type="github">
  <diagram id="MrbAbaUE89UtdHBA36ld" name="Page-1">
    <mxGraphModel dx="920" dy="2000" grid="1" gridSize="10" guides="1" tooltips="1" connect="1" arrows="1" fold="1" page="1" pageScale="1" pageWidth="827" pageHeight="1169" math="0" shadow="0">
      <root>
        <mxCell id="0" />
        <mxCell id="1" parent="0" />
        <mxCell id="EHrKfYYRzJy3UvB8IF_T-1" value="" style="rounded=0;whiteSpace=wrap;html=1;fillColor=none;" vertex="1" parent="1">
          <mxGeometry width="240" height="530" as="geometry" />
        </mxCell>
        <mxCell id="EHrKfYYRzJy3UvB8IF_T-2" value="&lt;font style=&quot;font-size: 24px;&quot;&gt;LEGEND&lt;/font&gt;" style="text;html=1;strokeColor=none;fillColor=none;align=center;verticalAlign=middle;whiteSpace=wrap;rounded=0;" vertex="1" parent="1">
          <mxGeometry width="240" height="40" as="geometry" />
        </mxCell>
        <mxCell id="EHrKfYYRzJy3UvB8IF_T-4" value="TABLE" style="shape=cylinder3;whiteSpace=wrap;html=1;boundedLbl=1;backgroundOutline=1;size=15;fontSize=24;fillColor=#b1ddf0;strokeColor=#10739e;" vertex="1" parent="1">
          <mxGeometry x="40" y="40" width="140" height="70" as="geometry" />
        </mxCell>
        <mxCell id="EHrKfYYRzJy3UvB8IF_T-6" value="" style="rounded=0;whiteSpace=wrap;html=1;fillColor=none;" vertex="1" parent="1">
          <mxGeometry x="580" width="240" height="250" as="geometry" />
        </mxCell>
        <mxCell id="EHrKfYYRzJy3UvB8IF_T-7" value="&lt;font style=&quot;font-size: 24px;&quot;&gt;Server Info&lt;/font&gt;" style="text;html=1;strokeColor=none;fillColor=none;align=center;verticalAlign=middle;whiteSpace=wrap;rounded=0;" vertex="1" parent="1">
          <mxGeometry x="580" width="240" height="40" as="geometry" />
        </mxCell>
        <mxCell id="EHrKfYYRzJy3UvB8IF_T-8" value="&lt;ul&gt;&lt;li&gt;&lt;font style=&quot;font-size: 12px;&quot;&gt;Region: EU-WEST-2&lt;/font&gt;&lt;/li&gt;&lt;li&gt;&lt;font style=&quot;font-size: 12px;&quot;&gt;Cost estimate of this setup (as from Pricing Calculator): Not suitable post free tier, cheapest RDS options are far too powerful and thus far too expensive.&lt;/font&gt;&lt;/li&gt;&lt;li&gt;&lt;font style=&quot;font-size: 12px;&quot;&gt;Cost Estimate Date:&lt;/font&gt;&lt;/li&gt;&lt;/ul&gt;" style="text;html=1;strokeColor=none;fillColor=none;align=left;verticalAlign=middle;whiteSpace=wrap;rounded=0;fontSize=24;" vertex="1" parent="1">
          <mxGeometry x="560" y="50" width="260" height="100" as="geometry" />
        </mxCell>
        <mxCell id="EHrKfYYRzJy3UvB8IF_T-10" value="&lt;font style=&quot;font-size: 21px;&quot;&gt;NeckInj&lt;br&gt;RDS T-SQL&lt;/font&gt;" style="shape=cylinder3;whiteSpace=wrap;html=1;boundedLbl=1;backgroundOutline=1;size=15;fontSize=24;fillColor=#b1ddf0;strokeColor=#10739e;" vertex="1" parent="1">
          <mxGeometry x="274" y="435" width="140" height="170" as="geometry" />
        </mxCell>
        <mxCell id="EHrKfYYRzJy3UvB8IF_T-11" value="NeckInj_report.py" style="shape=tape;whiteSpace=wrap;html=1;fontSize=21;fillColor=#fad7ac;strokeColor=#b46504;" vertex="1" parent="1">
          <mxGeometry x="630" y="470" width="180" height="100" as="geometry" />
        </mxCell>
        <mxCell id="EHrKfYYRzJy3UvB8IF_T-12" value="Lambda Function" style="shape=tape;whiteSpace=wrap;html=1;fontSize=21;fillColor=#fad7ac;strokeColor=#b46504;" vertex="1" parent="1">
          <mxGeometry x="20" y="120" width="180" height="100" as="geometry" />
        </mxCell>
        <mxCell id="EHrKfYYRzJy3UvB8IF_T-14" value="" style="endArrow=classic;html=1;rounded=0;fontSize=21;" edge="1" parent="1">
          <mxGeometry width="50" height="50" relative="1" as="geometry">
            <mxPoint x="40" y="250" as="sourcePoint" />
            <mxPoint x="180" y="250" as="targetPoint" />
          </mxGeometry>
        </mxCell>
        <mxCell id="EHrKfYYRzJy3UvB8IF_T-15" value="Data Push" style="text;html=1;strokeColor=none;fillColor=none;align=center;verticalAlign=middle;whiteSpace=wrap;rounded=0;fontSize=21;" vertex="1" parent="1">
          <mxGeometry x="45" y="260" width="130" height="30" as="geometry" />
        </mxCell>
        <mxCell id="EHrKfYYRzJy3UvB8IF_T-16" value="Data Pull" style="text;html=1;strokeColor=none;fillColor=none;align=center;verticalAlign=middle;whiteSpace=wrap;rounded=0;fontSize=21;" vertex="1" parent="1">
          <mxGeometry x="45" y="350" width="130" height="30" as="geometry" />
        </mxCell>
        <mxCell id="EHrKfYYRzJy3UvB8IF_T-17" value="" style="shape=flexArrow;endArrow=classic;html=1;rounded=0;fontSize=21;" edge="1" parent="1">
          <mxGeometry width="50" height="50" relative="1" as="geometry">
            <mxPoint x="50" y="330" as="sourcePoint" />
            <mxPoint x="180" y="330" as="targetPoint" />
          </mxGeometry>
        </mxCell>
        <mxCell id="EHrKfYYRzJy3UvB8IF_T-18" value="Events Manager" style="rounded=1;whiteSpace=wrap;html=1;fontSize=21;fillColor=#d0cee2;strokeColor=#56517e;" vertex="1" parent="1">
          <mxGeometry x="660" y="270" width="120" height="60" as="geometry" />
        </mxCell>
        <mxCell id="EHrKfYYRzJy3UvB8IF_T-19" value="" style="shape=trapezoid;perimeter=trapezoidPerimeter;whiteSpace=wrap;html=1;fixedSize=1;fontSize=21;rotation=-180;fillColor=#d5e8d4;gradientColor=#97d077;strokeColor=#82b366;" vertex="1" parent="1">
          <mxGeometry x="50" y="400" width="120" height="60" as="geometry" />
        </mxCell>
        <mxCell id="EHrKfYYRzJy3UvB8IF_T-20" value="S3 Bucket" style="text;html=1;strokeColor=none;fillColor=none;align=center;verticalAlign=middle;whiteSpace=wrap;rounded=0;fontSize=21;" vertex="1" parent="1">
          <mxGeometry x="45" y="470" width="130" height="30" as="geometry" />
        </mxCell>
        <mxCell id="EHrKfYYRzJy3UvB8IF_T-21" value="" style="shape=trapezoid;perimeter=trapezoidPerimeter;whiteSpace=wrap;html=1;fixedSize=1;fontSize=21;rotation=-180;fillColor=#d5e8d4;gradientColor=#97d077;strokeColor=#82b366;" vertex="1" parent="1">
          <mxGeometry x="650" y="680" width="120" height="60" as="geometry" />
        </mxCell>
        <mxCell id="EHrKfYYRzJy3UvB8IF_T-22" value="Reports Bucket" style="text;html=1;strokeColor=none;fillColor=none;align=center;verticalAlign=middle;whiteSpace=wrap;rounded=0;fontSize=21;rotation=-180;" vertex="1" parent="1">
          <mxGeometry x="645" y="695" width="130" height="30" as="geometry" />
        </mxCell>
        <mxCell id="EHrKfYYRzJy3UvB8IF_T-23" value="" style="endArrow=classic;html=1;rounded=0;fontSize=21;entryX=0.52;entryY=0.155;entryDx=0;entryDy=0;entryPerimeter=0;exitX=0.5;exitY=1;exitDx=0;exitDy=0;" edge="1" parent="1" source="EHrKfYYRzJy3UvB8IF_T-18" target="EHrKfYYRzJy3UvB8IF_T-11">
          <mxGeometry width="50" height="50" relative="1" as="geometry">
            <mxPoint x="620" y="430" as="sourcePoint" />
            <mxPoint x="670" y="380" as="targetPoint" />
          </mxGeometry>
        </mxCell>
        <mxCell id="EHrKfYYRzJy3UvB8IF_T-24" value="&lt;font style=&quot;font-size: 18px;&quot;&gt;Scheduled CRON Job&lt;/font&gt;" style="text;html=1;strokeColor=none;fillColor=none;align=center;verticalAlign=middle;whiteSpace=wrap;rounded=0;fontSize=21;rotation=-90;" vertex="1" parent="1">
          <mxGeometry x="605" y="405" width="175" height="30" as="geometry" />
        </mxCell>
        <mxCell id="EHrKfYYRzJy3UvB8IF_T-25" value="" style="shape=flexArrow;endArrow=classic;html=1;rounded=0;fontSize=21;" edge="1" parent="1">
          <mxGeometry width="50" height="50" relative="1" as="geometry">
            <mxPoint x="430" y="530" as="sourcePoint" />
            <mxPoint x="620" y="530" as="targetPoint" />
          </mxGeometry>
        </mxCell>
        <mxCell id="EHrKfYYRzJy3UvB8IF_T-26" value="" style="endArrow=classic;html=1;rounded=0;fontSize=21;entryX=0.5;entryY=1;entryDx=0;entryDy=0;" edge="1" parent="1" source="EHrKfYYRzJy3UvB8IF_T-11" target="EHrKfYYRzJy3UvB8IF_T-21">
          <mxGeometry width="50" height="50" relative="1" as="geometry">
            <mxPoint x="505" y="630" as="sourcePoint" />
            <mxPoint x="645" y="630" as="targetPoint" />
          </mxGeometry>
        </mxCell>
      </root>
    </mxGraphModel>
  </diagram>
</mxfile>
